<mxfile host="app.diagrams.net" modified="2024-07-03T03:13:45.760Z" agent="Mozilla/5.0 (Linux; Android 10; K) AppleWebKit/537.36 (KHTML, like Gecko) Chrome/126.0.0.0 Mobile Safari/537.36" version="24.6.4" etag="LZ5xfzxLganlDF7jagm7" type="github">
  <diagram name="Page-1" id="MU89S5xZhVlIoUR01t-f">
    <mxGraphModel>
      <root>
        <mxCell id="0" />
        <mxCell id="1" parent="0" />
      </root>
    </mxGraphModel>
  </diagram>
</mxfile>
